<?xml version="1.0" encoding="iso-8859-1"?>
<!-- Generator: Adobe Illustrator 19.1.0, SVG Export Plug-In . SVG Version: 6.00 Build 0)  -->
<svg version="1.1" id="Capa_1" xmlns="http://www.w3.org/2000/svg" xmlns:xlink="http://www.w3.org/1999/xlink" x="0px" y="0px"
	 viewBox="0 0 488 488" style="enable-background:new 0 0 488 488;" xml:space="preserve">
<g>
	<g>
		<g>
			<path d="M414.549,317c-46.8-38.5-97.3-64-107.6-69c-1.2-0.6-1.9-1.7-1.9-3v-73c9.2-6.1,15.2-16.5,15.2-28.4V68.1
				c0-37.6-30.5-68.1-68.1-68.1h-8.1h-8.1c-37.6,0-68.1,30.5-68.1,68.1v75.6c0,11.8,6.1,22.3,15.2,28.4V245c0,1.3-0.7,2.5-1.9,3
				c-10.3,5-60.8,30.5-107.6,69c-8.5,7-13.3,17.4-13.3,28.3v51.8h69.4v-5.8c0-15.1,10.7-27.7,24.9-30.6c0.1-0.3,0.3-0.6,0.4-0.9
				c-3.4-5.1-5.2-11-5.2-17.2c0-8.3,3.2-16.2,9.1-22.1l8.4-8.4c5.9-5.9,13.7-9.2,22.1-9.2c6.3,0,12.3,1.8,17.4,5.3
				c0.2-0.1,0.5-0.2,0.7-0.3c2.8-14.3,15.5-25.2,30.6-25.2h11.9l0,0l0,0c15.2,0,27.9,10.9,30.6,25.3c0.2,0.1,0.4,0.1,0.5,0.2
				c5.1-3.5,11.2-5.4,17.5-5.4c8.3,0,16.2,3.2,22,9.1l8.4,8.4c10.8,10.7,12,27.4,3.8,39.6c0.1,0.2,0.2,0.4,0.2,0.5
				c14.4,2.7,25.3,15.4,25.4,30.6v6h69.4v-51.8C427.849,334.3,422.949,323.9,414.549,317z"/>
		</g>
		<g>
			<path d="M327.249,383.4h-11.7c-1.8-9.6-5.6-18.9-11.4-27.3l8.3-8.3c3-3,3-7.9,0-10.9l-8.4-8.4c-3-3-7.9-3-10.9,0l-8.3,8.3
				c-8.4-5.7-17.7-9.5-27.3-11.3v-11.7c0-4.2-3.4-7.7-7.7-7.7h-11.9c-4.2,0-7.7,3.4-7.7,7.7v11.6c-9.7,1.8-19,5.6-27.4,11.3
				l-8.2-8.2c-3-3-7.9-3-10.9,0l-8.4,8.4c-3,3-3,7.9,0,10.9l8.1,8.1c-5.8,8.4-9.6,17.8-11.5,27.5h-11.4c-4.2,0-7.7,3.4-7.7,7.7V403
				c0,4.2,3.4,7.7,7.7,7.7h11.3c1.8,9.7,5.6,19.2,11.4,27.6l-7.9,8c-3,3-3,7.9,0,10.9l8.4,8.4c3,3,7.9,3,10.9,0l7.9-8
				c8.5,5.8,17.9,9.6,27.7,11.4v11.3c0,4.2,3.4,7.7,7.7,7.7h11.9c4.2,0,7.7-3.4,7.7-7.7v-11.4c9.7-1.9,19.1-5.7,27.5-11.5l8.1,8.1
				c3,3,7.9,3,10.9,0l8.4-8.4c3-3,3-7.9,0-10.9l-8.2-8.2c5.7-8.4,9.5-17.8,11.2-27.5h11.6c4.2,0,7.7-3.4,7.7-7.7v-11.9
				C334.949,386.8,331.449,383.4,327.249,383.4z M272.049,425.1c-15.4,15.5-40.5,15.5-56,0.1s-15.5-40.5-0.1-56s40.5-15.5,56-0.1
				S287.549,409.6,272.049,425.1z"/>
		</g>
	</g>
</g>
<g>
</g>
<g>
</g>
<g>
</g>
<g>
</g>
<g>
</g>
<g>
</g>
<g>
</g>
<g>
</g>
<g>
</g>
<g>
</g>
<g>
</g>
<g>
</g>
<g>
</g>
<g>
</g>
<g>
</g>
</svg>
