<?xml version="1.0" standalone="no"?>
<!DOCTYPE svg PUBLIC "-//W3C//DTD SVG 20010904//EN"
 "http://www.w3.org/TR/2001/REC-SVG-20010904/DTD/svg10.dtd">
<svg version="1.0" xmlns="http://www.w3.org/2000/svg"
 width="1680.000000pt" height="480.000000pt" viewBox="0 0 1680.000000 480.000000"
 preserveAspectRatio="xMidYMid meet">

<g transform="translate(0.000000,480.000000) scale(0.100000,-0.100000)"
fill="#000000" stroke="none">
<path d="M3837 3063 c-3 -16 -67 -315 -141 -666 -75 -351 -136 -641 -136 -643
0 -3 28 -4 62 -2 l62 3 63 294 c69 325 73 334 169 427 94 90 237 145 325 125
144 -33 155 -122 66 -538 -31 -144 -59 -273 -63 -287 -6 -26 -6 -26 57 -26
l64 0 65 308 c55 260 65 322 65 407 0 85 -4 107 -23 148 -80 160 -361 136
-561 -49 l-69 -64 30 138 c16 75 44 208 62 295 l34 157 -63 0 c-60 0 -63 -1
-68 -27z"/>
<path d="M14505 3078 c-2 -7 -9 -40 -15 -73 -6 -33 -14 -68 -16 -77 -5 -16 2
-18 58 -18 l64 0 17 83 c9 45 17 85 17 90 0 13 -120 8 -125 -5z"/>
<path d="M8223 3060 c-171 -18 -326 -101 -464 -247 -270 -288 -305 -703 -79
-934 97 -99 224 -146 365 -136 182 14 345 86 468 208 42 42 77 81 77 87 0 6
-19 21 -43 34 l-43 24 -65 -66 c-49 -49 -88 -77 -150 -107 -105 -52 -175 -67
-275 -61 -259 15 -411 274 -335 570 87 339 395 568 683 507 110 -24 189 -83
228 -171 l21 -48 50 25 c27 14 52 32 55 39 7 18 -20 81 -52 123 -90 118 -247
173 -441 153z"/>
<path d="M11228 3059 c-249 -26 -423 -172 -460 -387 -14 -85 -3 -134 43 -187
44 -50 129 -86 322 -139 227 -62 288 -95 317 -171 12 -32 6 -91 -17 -145 -30
-75 -117 -137 -221 -159 -68 -14 -215 -14 -284 0 -76 16 -186 71 -238 119
l-45 42 -43 -49 -42 -48 50 -47 c94 -87 224 -135 395 -144 306 -17 530 115
581 342 20 92 14 153 -22 207 -48 72 -116 103 -404 183 -207 57 -249 85 -257
171 -11 111 80 238 198 277 69 23 218 32 289 17 72 -15 147 -50 193 -91 l37
-32 27 33 c57 66 56 64 17 98 -101 89 -258 129 -436 110z"/>
<path d="M527 3053 c-6 -9 -277 -1278 -277 -1295 0 -5 144 -8 358 -6 l357 3
64 27 c121 52 217 148 257 258 10 26 17 79 18 125 1 72 -2 85 -30 135 -23 41
-44 63 -82 85 -28 17 -51 32 -52 35 0 3 17 14 37 25 55 30 130 109 162 173 70
140 62 282 -22 371 -62 65 -66 66 -443 69 -188 2 -344 -1 -347 -5z m653 -135
c99 -68 95 -242 -8 -359 -17 -19 -55 -48 -84 -65 l-53 -29 -252 -3 c-202 -3
-253 -1 -253 10 0 13 88 434 95 456 3 9 65 12 263 12 252 0 260 -1 292 -22z
m-128 -568 c165 -46 171 -285 10 -417 -82 -67 -116 -73 -410 -73 l-254 0 4 23
c3 12 26 124 53 250 l48 227 256 0 c145 0 272 -5 293 -10z"/>
<path d="M3307 3023 c-3 -5 -19 -76 -37 -160 l-33 -152 -65 -3 -66 -3 -12 -47
c-6 -26 -9 -49 -6 -52 3 -4 32 -6 64 -6 32 0 58 -4 58 -10 0 -5 -32 -160 -71
-342 -40 -183 -72 -353 -72 -378 -1 -91 55 -135 173 -135 72 0 202 33 215 55
3 4 2 28 -1 53 l-7 46 -49 -20 c-71 -28 -142 -26 -173 6 -14 13 -25 34 -25 47
0 19 123 614 136 661 5 15 19 17 114 17 l108 0 11 50 c6 28 11 53 11 55 0 3
-49 5 -109 5 l-108 0 27 128 c15 70 30 142 34 160 l8 32 -61 0 c-33 0 -62 -3
-64 -7z"/>
<path d="M2458 2705 c-110 -28 -187 -73 -279 -165 -47 -47 -97 -106 -111 -132
-117 -213 -107 -436 24 -568 144 -144 392 -144 596 0 229 161 333 466 231 677
-33 70 -116 147 -186 173 -74 28 -197 35 -275 15z m218 -123 c91 -46 154 -156
154 -266 0 -276 -287 -531 -521 -463 -237 70 -261 408 -43 622 62 61 140 109
207 126 54 14 158 4 203 -19z"/>
<path d="M5080 2705 c-202 -51 -373 -206 -440 -398 -103 -292 42 -552 320
-574 162 -13 362 74 461 198 l30 38 -51 15 -50 15 -42 -45 c-91 -98 -267 -149
-385 -110 -64 21 -125 74 -152 130 -25 50 -43 149 -35 183 l6 23 408 0 409 0
11 57 c19 88 9 196 -25 271 -35 78 -121 162 -192 187 -65 23 -204 28 -273 10z
m235 -112 c47 -25 96 -74 120 -121 21 -42 36 -134 28 -173 l-5 -29 -349 0
c-301 0 -349 2 -349 15 0 31 56 130 103 182 103 112 199 155 332 150 57 -3 92
-10 120 -24z"/>
<path d="M6623 2705 c-145 -32 -248 -117 -284 -237 -48 -156 6 -214 272 -294
138 -41 166 -53 192 -82 39 -43 17 -134 -45 -187 -57 -48 -125 -68 -228 -68
-107 1 -180 27 -248 89 -28 24 -52 44 -55 44 -3 0 -20 -18 -38 -41 l-32 -40
43 -44 c156 -159 521 -147 669 21 74 85 103 213 62 281 -28 45 -86 74 -264
133 -186 61 -217 82 -217 143 0 88 62 155 170 183 122 31 275 -3 330 -74 l21
-26 42 42 41 42 -29 31 c-82 85 -242 119 -402 84z"/>
<path d="M9140 2713 c-52 -8 -155 -45 -224 -80 -39 -19 -72 -37 -74 -38 -7 -6
22 -85 31 -85 6 0 29 11 52 25 23 13 77 36 120 50 189 64 346 12 371 -124 6
-31 -9 -161 -21 -181 -2 -3 -35 1 -72 11 -85 22 -285 25 -360 5 -133 -35 -232
-107 -278 -200 -51 -104 -42 -205 23 -278 46 -51 103 -77 184 -84 121 -11 299
48 396 131 l42 37 -6 -55 c-6 -48 -4 -57 15 -76 18 -18 32 -21 69 -19 47 3 47
3 56 47 8 36 7 45 -7 53 -9 5 -17 17 -17 27 0 10 23 126 51 257 68 316 68 394
-1 481 -62 80 -209 120 -350 96z m159 -507 c30 -8 58 -19 64 -25 17 -17 -14
-141 -48 -190 -105 -155 -403 -214 -499 -100 -45 53 -52 132 -18 194 31 58
123 115 215 135 57 12 220 4 286 -14z"/>
<path d="M12200 2714 c-216 -42 -410 -215 -480 -427 -56 -169 -26 -337 79
-445 159 -164 462 -143 664 47 37 35 66 69 64 75 -2 6 -23 16 -47 23 l-43 13
-41 -44 c-80 -85 -201 -132 -315 -124 -150 11 -247 117 -259 280 l-5 68 412 0
411 0 10 26 c17 44 23 158 11 213 -26 124 -100 219 -208 268 -43 20 -75 26
-142 29 -47 1 -97 0 -111 -2z m175 -111 c107 -36 175 -143 175 -275 l0 -58
-356 0 -355 0 7 23 c41 132 167 263 296 308 67 23 170 24 233 2z"/>
<path d="M15066 2705 c-274 -69 -478 -339 -464 -612 4 -69 10 -93 41 -156 43
-87 85 -128 177 -171 59 -28 74 -31 165 -30 110 0 168 14 270 68 56 29 175
135 175 155 0 6 -24 18 -54 27 l-54 17 -32 -36 c-68 -78 -216 -135 -318 -123
-71 8 -121 35 -171 92 -89 102 -95 276 -13 428 41 77 135 167 217 207 63 31
78 34 155 34 110 0 170 -27 215 -97 34 -52 42 -55 109 -32 44 15 47 18 41 43
-17 70 -86 138 -177 173 -70 27 -203 33 -282 13z"/>
<path d="M16010 2701 c-105 -28 -187 -77 -276 -166 -58 -58 -90 -100 -116
-152 -122 -243 -71 -500 119 -600 139 -74 298 -67 471 21 53 27 169 130 174
155 2 8 -14 18 -41 26 l-43 14 -49 -49 c-110 -110 -298 -152 -416 -92 -92 47
-153 154 -153 269 l0 53 413 2 412 3 14 75 c24 125 -10 253 -90 345 -89 101
-258 140 -419 96z m220 -96 c108 -38 173 -136 174 -259 l1 -71 -353 -3 -353
-2 6 22 c43 141 171 270 310 314 55 17 164 17 215 -1z"/>
<path d="M1596 2693 c-9 -31 -196 -920 -196 -932 0 -7 22 -11 60 -11 54 0 60
2 65 23 3 12 32 146 64 299 51 240 63 282 90 321 68 100 190 177 310 196 35 6
65 12 66 13 1 2 7 27 12 57 l11 54 -63 -5 c-93 -8 -183 -56 -273 -145 -50 -50
-71 -66 -67 -50 14 61 35 170 35 183 0 23 -107 20 -114 -3z"/>
<path d="M5816 2702 c-2 -4 -48 -212 -101 -462 -53 -250 -98 -463 -101 -472
-5 -16 2 -18 58 -18 l64 0 64 301 c62 292 65 304 102 353 70 93 170 157 287
182 36 7 69 14 73 14 8 0 14 20 24 74 l7 39 -59 -5 c-91 -6 -180 -53 -269
-140 -41 -41 -75 -69 -75 -63 0 6 9 51 20 101 11 49 20 92 20 97 0 10 -107 9
-114 -1z"/>
<path d="M9830 2688 c-5 -13 -50 -219 -100 -458 -50 -239 -94 -445 -97 -458
-5 -22 -4 -23 58 -20 l64 3 63 295 c58 275 65 299 99 348 73 107 182 171 335
196 34 6 37 9 47 57 6 27 11 53 11 56 0 3 -29 3 -64 1 -89 -8 -189 -62 -277
-150 l-66 -67 22 104 c13 57 20 106 17 109 -3 4 -27 6 -54 6 -41 0 -50 -4 -58
-22z"/>
<path d="M12897 2688 c-11 -47 -197 -925 -197 -932 0 -4 28 -6 62 -4 l62 3 63
299 c67 318 68 319 147 404 61 65 175 120 287 137 33 5 38 9 43 43 4 20 9 45
12 55 5 14 -2 17 -41 17 -97 0 -238 -77 -323 -177 l-41 -48 23 108 c12 59 20
109 18 112 -3 3 -29 5 -58 5 -45 0 -52 -3 -57 -22z"/>
<path d="M13398 2703 c-4 -6 157 -849 177 -930 5 -21 11 -23 73 -23 l67 1 290
470 c160 258 292 474 293 479 2 6 -22 10 -56 10 l-59 0 -243 -400 c-134 -221
-248 -408 -254 -416 -9 -11 -29 84 -87 398 l-75 413 -61 3 c-34 2 -63 -1 -65
-5z"/>
<path d="M14429 2708 c0 -2 -47 -218 -103 -480 l-102 -478 62 0 62 0 12 53
c72 335 190 895 190 900 0 6 -119 10 -121 5z"/>
</g>
</svg>
